# Blender 5.0.0
# www.blender.org
mtllib Grass_Block.mtl
o Grass_Block_Cube
v 0.500000 -0.499999 -0.500000
v 0.500000 -0.499998 0.500000
v -0.500000 -0.499998 0.500000
v -0.500000 -0.499999 -0.500000
v 0.500000 0.500002 -0.500000
v 0.499999 0.500002 0.500000
v -0.500000 0.500002 0.500000
v -0.500000 0.500002 -0.500000
vn -0.0000 -1.0000 -0.0000
vn -0.0000 1.0000 -0.0000
vn 1.0000 -0.0000 -0.0000
vn -0.0000 -0.0000 1.0000
vn -1.0000 -0.0000 -0.0000
vn -0.0000 -0.0000 -1.0000
vt 0.666657 0.250023
vt 0.333343 0.250023
vt 0.333343 0.000038
vt 0.666657 0.000038
vt 0.666657 0.500009
vt 0.666657 0.749994
vt 0.333343 0.749994
vt 0.333343 0.500009
vt 0.000029 0.500009
vt 0.000029 0.749994
vt 0.333343 0.999980
vt 0.666657 0.999980
vt 0.999971 0.500009
vt 0.999971 0.749994
s 1
usemtl Grass_Block_TEX
f 1/1/1 2/2/1 3/3/1 4/4/1
f 5/5/2 8/6/2 7/7/2 6/8/2
f 1/1/3 5/5/3 6/8/3 2/2/3
f 2/9/4 6/8/4 7/7/4 3/10/4
f 3/11/5 7/7/5 8/6/5 4/12/5
f 5/5/6 1/13/6 4/14/6 8/6/6
